<?xml version="1.0" standalone="no"?>
<!DOCTYPE svg PUBLIC "-//W3C//DTD SVG 20010904//EN"
 "http://www.w3.org/TR/2001/REC-SVG-20010904/DTD/svg10.dtd">
<svg version="1.0" xmlns="http://www.w3.org/2000/svg"
 width="549.000000pt" height="549.000000pt" viewBox="0 0 549.000000 549.000000"
 preserveAspectRatio="xMidYMid meet">
<metadata>
Created by potrace 1.11, written by Peter Selinger 2001-2013
</metadata>
<g transform="translate(0.000000,549.000000) scale(0.100000,-0.100000)"
fill="#000000" stroke="none">
<path d="M270 3885 c0 -789 -2 -1435 -5 -1435 -3 0 -60 28 -128 62 -67 35
-125 64 -129 66 -5 2 -8 -539 -8 -1202 l0 -1206 2745 0 2745 0 0 1205 0 1205
-110 -55 -110 -55 0 1425 0 1425 -2500 0 -2500 0 0 -1435z m4860 -94 c0 -1099
-3 -1391 -12 -1399 -7 -5 -407 -213 -889 -461 l-877 -451 -605 0 -605 0 -861
442 -860 443 -1 1408 0 1407 2355 0 2355 0 0 -1389z"/>
<path d="M1095 4379 c-128 -25 -268 -126 -333 -240 -62 -110 -62 -109 -62
-703 0 -541 0 -541 24 -607 52 -147 168 -261 316 -311 63 -21 83 -22 543 -26
l477 -3 0 180 0 181 -450 0 c-497 0 -486 -1 -532 62 l-23 33 0 495 0 495 24
34 c44 61 42 61 567 61 414 0 480 -2 509 -16 45 -21 68 -58 75 -119 l5 -50
145 -3 c80 -2 160 0 178 3 30 6 32 8 32 50 0 202 -136 392 -336 467 -58 22
-68 23 -584 24 -307 1 -546 -2 -575 -7z"/>
<path d="M2930 4205 l0 -185 724 0 c717 0 724 0 750 -21 l26 -20 0 -153 c0
-121 -3 -156 -16 -174 l-15 -22 -735 0 -734 0 0 -570 0 -570 175 0 175 0 2
383 3 382 670 5 c485 4 677 8 696 17 42 19 98 73 122 117 22 40 22 49 22 426
0 361 -1 387 -19 424 -25 50 -72 97 -122 122 -38 18 -71 19 -881 22 l-843 2 0
-185z"/>
<path d="M1600 3430 l0 -180 315 0 315 0 2 -377 3 -378 178 -3 177 -2 0 560 0
560 -495 0 -495 0 0 -180z"/>
</g>
</svg>
