<svg width="45" height="45" fill="none" xmlns="http://www.w3.org/2000/svg"><rect width="45" height="45" rx="5" fill="#3A3A3A"/><circle cx="22.5" cy="22.5" r="16.071" fill="#fff"/><path d="M22.566 20.209a3.622 3.622 0 100-7.245 3.622 3.622 0 000 7.245z" fill="#3A3A3A"/><path d="M22.5 0C10.073 0 0 10.074 0 22.5 0 34.925 10.073 45 22.5 45 34.925 45 45 34.925 45 22.5 45 10.074 34.925 0 22.5 0zm-.047 10.302c.016 0 .031 0 .047-.002l.047.002c3.791.06 6.875 3.193 6.875 6.985 0 4.636-4.954 9.33-6.922 11.013-.132-.113-.277-.24-.433-.378l-.008-.007c-2.178-1.936-6.481-6.306-6.481-10.628 0-3.792 3.084-6.925 6.875-6.985zm.145 24.536c-4.15 0-8.35-1.19-8.35-3.465 0-1.596 2.068-2.658 4.735-3.15.515.52 1.004.977 1.432 1.358-2.905.325-4.612 1.244-4.612 1.792 0 .672 2.58 1.908 6.795 1.908s6.794-1.236 6.794-1.908c0-.559-1.779-1.502-4.789-1.808a33.43 33.43 0 001.444-1.372c2.747.479 4.901 1.55 4.901 3.18 0 2.274-4.2 3.465-8.35 3.465z" fill="#3A3A3A"/></svg>