<svg width="29" height="26" fill="none" xmlns="http://www.w3.org/2000/svg"><path d="M.924 26h3.7a.925.925 0 00.925-.924V8.902a.924.924 0 00-.925-.924h-3.7A.924.924 0 000 8.902v16.174c0 .51.414.924.924.924zm0-20.866h3.7a.924.924 0 00.925-.924V.924A.924.924 0 004.624 0h-3.7A.924.924 0 000 .924V4.21c0 .51.414.924.924.924zm26.146 4.72c-.52-.685-1.286-1.247-2.3-1.689-1.013-.44-2.132-.661-3.357-.661-2.485 0-4.591.948-6.318 2.846-.343.377-.593.295-.593-.216V8.902a.924.924 0 00-.924-.924h-3.306a.924.924 0 00-.924.924v16.174c0 .51.414.924.924.924h3.7a.925.925 0 00.925-.924V19.45c0-2.343.141-3.95.424-4.818a3.98 3.98 0 011.57-2.093 4.45 4.45 0 012.587-.79c.75 0 1.392.184 1.926.553.533.368.918.885 1.155 1.55s.355 2.13.355 4.394v6.829c0 .51.414.924.925.924h3.7c.51 0 .924-.414.924-.924v-9.16c0-1.619-.102-2.863-.306-3.732a6.113 6.113 0 00-1.086-2.33z" fill="#2A9AE1"/></svg>