<svg width="45" height="45" fill="none" xmlns="http://www.w3.org/2000/svg"><rect width="45" height="45" rx="5" fill="#3A3A3A"/><circle cx="22.5" cy="22.5" r="16.071" fill="#fff"/><path d="M22.5 0C10.073 0 0 10.074 0 22.5 0 34.925 10.073 45 22.5 45 34.925 45 45 34.925 45 22.5 45 10.074 34.925 0 22.5 0zm0 7.903l13.315 8.303H9.185L22.5 7.903zm13.48 21.56a2.41 2.41 0 01-2.412 2.412H11.432a2.41 2.41 0 01-2.411-2.411v-12.73c0-.141.014-.278.038-.413l12.72 7.933c.017.01.033.016.05.025a1.336 1.336 0 00.328.135c.009.003.019.004.029.006.103.025.209.04.314.04h.002c.105 0 .21-.015.314-.04.01-.002.02-.003.029-.006a1.35 1.35 0 00.328-.135c.016-.009.033-.015.048-.025l12.722-7.933c.023.135.037.272.037.413v12.73z" fill="#3A3A3A"/></svg>