<svg width="45" height="45" fill="none" xmlns="http://www.w3.org/2000/svg"><rect width="45" height="45" rx="5" fill="#3A3A3A"/><path d="M27.52 25.728l-3.976-2.249v-8.21a1.083 1.083 0 00-2.166 0v8.842c0 .014.004.027.004.04.001.039.006.076.011.113.005.035.01.069.018.102.008.033.02.065.03.098a.947.947 0 00.088.19c.018.03.035.06.055.088.02.029.044.055.068.082.023.026.045.051.07.075.025.023.052.044.08.066.03.023.06.044.092.064.012.008.021.018.034.024l4.526 2.56a1.08 1.08 0 001.476-.41c.294-.52.11-1.18-.41-1.475z" fill="#fff"/><path d="M22.5 7.714c-8.153 0-14.786 6.633-14.786 14.786 0 8.153 6.633 14.786 14.786 14.786 8.153 0 14.786-6.633 14.786-14.786 0-8.153-6.633-14.786-14.786-14.786zm.941 27.18v-2.158H21.56v2.157c-5.829-.438-10.548-4.911-11.364-10.628h2.226v-1.883h-2.35c.06-6.484 5.11-11.795 11.488-12.275v2.157h1.882v-2.157c6.378.48 11.428 5.79 11.489 12.275h-2.233v1.883h2.108c-.816 5.717-5.535 10.19-11.364 10.628z" fill="#fff"/></svg>