<svg width="45" height="45" fill="none" xmlns="http://www.w3.org/2000/svg"><rect width="45" height="45" rx="5" fill="#3A3A3A"/><circle cx="22.5" cy="22.5" r="16.071" fill="#fff"/><path d="M22.498 35.67a1.758 1.758 0 100-3.515 1.758 1.758 0 000 3.515zm4.904-25.433h-9.807c-.55 0-.997.427-.997.95v18.539c0 .523.447.95.997.95h9.807c.55 0 .997-.427.997-.95V11.187c0-.524-.447-.95-.997-.95z" fill="#3A3A3A"/><path d="M22.5 0C10.072 0 0 10.074 0 22.5 0 34.925 10.073 45 22.5 45 34.924 45 45 34.925 45 22.5 45 10.074 34.925 0 22.5 0zm8.753 33.603a3.112 3.112 0 01-3.112 3.112H16.859a3.113 3.113 0 01-3.113-3.112V11.298a3.113 3.113 0 013.112-3.112h11.283a3.112 3.112 0 013.112 3.113v22.304z" fill="#3A3A3A"/></svg>