<svg width="22" height="26" fill="none" xmlns="http://www.w3.org/2000/svg"><path d="M10.917 0C3.789.001 0 4.567 0 9.546c0 2.309 1.29 5.19 3.356 6.103.59.265.511-.059 1.018-1.998a.46.46 0 00-.11-.452c-2.953-3.415-.576-10.438 6.23-10.438 9.851 0 8.01 13.63 1.714 13.63-1.623 0-2.832-1.273-2.45-2.85.464-1.877 1.372-3.895 1.372-5.248 0-3.41-5.08-2.904-5.08 1.614 0 1.396.493 2.339.493 2.339l-1.937 7.838c-.513 2.089.07 5.47.12 5.761.032.16.212.211.312.08.162-.212 2.138-3.03 2.691-5.069.202-.742 1.029-3.753 1.029-3.753.544.983 2.115 1.807 3.79 1.807 4.978 0 8.577-4.377 8.577-9.808C21.108 3.896 16.652 0 10.917 0z" fill="#2A9AE1"/></svg>