<svg width="26" height="26" fill="none" xmlns="http://www.w3.org/2000/svg"><path d="M5.763 15.712l-.905 3.379-3.308.07A12.942 12.942 0 01.001 13c0-2.157.524-4.19 1.454-5.98l2.945.54 1.29 2.928A7.728 7.728 0 005.273 13c0 .954.173 1.869.49 2.712zm20.011-5.14c.149.786.227 1.598.227 2.428a12.997 12.997 0 01-4.861 10.138h-.001l-3.71-.19-.524-3.277a7.748 7.748 0 003.333-3.956h-6.951v-5.143h12.487z" fill="#2A9AE1"/><path d="M21.139 23.137A12.945 12.945 0 0113.002 26c-4.95 0-9.255-2.767-11.45-6.84l4.212-3.448a7.73 7.73 0 0011.142 3.959l4.234 3.466zm.16-20.144L17.087 6.44A7.732 7.732 0 005.69 10.489L1.455 7.02A12.997 12.997 0 0113 0c3.154 0 6.046 1.124 8.298 2.993z" fill="#2A9AE1"/></svg>