<svg id="Layer_1" data-name="Layer 1" xmlns="http://www.w3.org/2000/svg" viewBox="0 0 100.5 46.04"><defs><style>.cls-1{fill:#5565af;}.cls-2{fill:#58bc75;}</style></defs><title>genieping-logo</title><path class="cls-1" d="M65.61,17.1a8.23,8.23,0,0,0-14,6.39,8.26,8.26,0,0,0,7.8,7.73h.45a8.2,8.2,0,0,0,5.43-2l-1-1.19a6.69,6.69,0,0,1-4.77,1.64,6.77,6.77,0,0,1-6.31-6.26A6.64,6.64,0,0,1,64.5,18.22a6.92,6.92,0,0,1,2,4.92,4.08,4.08,0,0,1-.34,2,1,1,0,0,1-.76.53,1.17,1.17,0,0,1-.92-.29,1.32,1.32,0,0,1-.44-1V18.93H62.52v.87a4.14,4.14,0,1,0,.36,6,2.7,2.7,0,0,0,.61.78,2.75,2.75,0,0,0,2.15.67A2.57,2.57,0,0,0,67.56,26a5.39,5.39,0,0,0,.57-2.81,8.53,8.53,0,0,0-2.52-6m-5.75,8.42A2.56,2.56,0,1,1,62.42,23a2.56,2.56,0,0,1-2.56,2.55" transform="translate(-10.18 -8.26)"/><path class="cls-1" d="M39.12,31.71v-3.8l2.51,1.85,3.55,2.63,1.23-1.24L43,28.63V10H69.82v8.65H75V16.91H71.55V11.42l6.27,7.11V28.79l-3,2.24L76,32.26l5.7-4.19v3.16h1.73V25.84l-3.89-3.38V17.88L71.07,8.26H41.28v14.2l-3.89,3.38v5.87Zm40.43-7,1.72,1.5-1.72,1.27Zm-38.27,0v2.61l-1.62-1.2Z" transform="translate(-10.18 -8.26)"/><polygon class="cls-1" points="71.53 38.91 71.53 44.31 71.47 44.31 63.98 38.05 62.75 39.27 68.77 44.31 31.25 44.31 36.45 39.69 35.23 38.46 28.95 44.05 28.95 38.91 27.22 38.91 27.22 46.04 73.26 46.04 73.26 38.91 71.53 38.91"/><path class="cls-2" d="M13.17,45.4a3,3,0,0,1-3-3V36.48a3,3,0,0,1,3-3h5.93a3,3,0,0,1,3,3v0H20.36a1.23,1.23,0,0,0-1.24-1.24H13.19a1.25,1.25,0,0,0-1.26,1.26v5.91a1.25,1.25,0,0,0,1.24,1.25H18.6V45.4Zm7.19,0v-5H16.15V38.64h6V45.4Z" transform="translate(-10.18 -8.26)"/><path class="cls-2" d="M23.81,33.48h12v1.76H23.81Zm0,11.92V38.64H34V40.4H25.56v3.25H35.74V45.4Z" transform="translate(-10.18 -8.26)"/><rect class="cls-2" x="41.29" y="25.22" width="1.76" height="11.92"/><rect class="cls-2" x="71.48" y="25.22" width="1.76" height="11.92"/><path class="cls-2" d="M95.4,45.4,86.11,35.24h-1V33.48h1.76l8.42,9.21V33.48H97V45.4ZM85.11,38.64h1.76V45.4H85.11Z" transform="translate(-10.18 -8.26)"/><path class="cls-2" d="M101.73,45.4a3,3,0,0,1-3-3V36.48a3,3,0,0,1,3-3h5.93a3,3,0,0,1,3,3v0h-1.74a1.23,1.23,0,0,0-1.24-1.24h-5.93a1.24,1.24,0,0,0-1.25,1.26v5.91a1.25,1.25,0,0,0,1.23,1.25h5.43V45.4Zm7.19,0v-5h-4.21V38.64h6V45.4Z" transform="translate(-10.18 -8.26)"/><path class="cls-2" d="M55.29,33.48h12v1.76h-12Zm0,11.92V38.64H65.47V40.4H57.05v3.25H67.23V45.4Z" transform="translate(-10.18 -8.26)"/><path class="cls-2" d="M80.35,34.84V39A1.36,1.36,0,0,1,79,40.36H70.3v5H68.56V38.51h9.27a.66.66,0,0,0,.66-.67V36a.65.65,0,0,0-.66-.66H68.56V33.48H79a1.36,1.36,0,0,1,1.36,1.36" transform="translate(-10.18 -8.26)"/><path class="cls-2" d="M47.75,45.4,38.46,35.24h-1V33.48h1.76l8.42,9.21V33.48h1.76V45.4Zm-10.3-6.76h1.76V45.4H37.45Z" transform="translate(-10.18 -8.26)"/></svg>