<svg id="Слой_1" data-name="Слой 1" xmlns="http://www.w3.org/2000/svg" xmlns:xlink="http://www.w3.org/1999/xlink" viewBox="0 0 639.48 600"><defs><style>.cls-1{fill:#fff;}.cls-2{fill:url(#Безымянный_градиент_12);}.cls-3{fill:url(#Безымянный_градиент_12-2);}</style><linearGradient id="Безымянный_градиент_12" x1="-5.11" y1="464.38" x2="633.53" y2="464.38" gradientUnits="userSpaceOnUse"><stop offset="0" stop-color="#1100b8"/><stop offset="1" stop-color="#11a61e"/></linearGradient><linearGradient id="Безымянный_градиент_12-2" x1="-5.11" y1="523.8" x2="633.53" y2="523.8" xlink:href="#Безымянный_градиент_12"/></defs><polygon points="33.25 2.98 33.25 342.97 52.12 352.68 251.59 455.37 383.59 455.37 583.02 352.68 601.93 342.97 601.93 2.98 33.25 2.98"/><rect class="cls-1" x="250.76" y="240.54" width="20.68" height="109.75"/><rect class="cls-1" x="432.27" y="110.47" width="20.68" height="109.75"/><rect class="cls-1" x="281" y="285.73" width="20.68" height="64.56"/><polygon class="cls-1" points="370.21 317.08 300.21 240.54 281 240.54 281 261.22 291.28 261.22 371.93 349.43 372.72 350.29 390.9 350.29 390.9 240.54 370.21 240.54 370.21 317.08"/><path class="cls-1" d="M421.14,321.39v-51.8a8.28,8.28,0,0,1,8.37-8.37h51.94a8.13,8.13,0,0,1,8.22,8.22v2.64h17.9l2.64-.3v-2.63a28.71,28.71,0,0,0-28.76-28.61H429.51a29,29,0,0,0-29.05,28.9v51.95a28.94,28.94,0,0,0,28.9,28.9h50.18V329.75H429.36A8.3,8.3,0,0,1,421.14,321.39Z"/><polygon class="cls-1" points="452.84 285.73 452.84 306.41 489.67 306.41 489.67 350.29 510.35 350.29 510.35 285.73 452.84 285.73"/><path class="cls-1" d="M230.05,240.54H136V262h83.9a3.2,3.2,0,0,1,3.19,3.18v16.16a3.2,3.2,0,0,1-3.19,3.19H136v65.72h20.58V306.07h73.52a14.5,14.5,0,0,0,14.49-14.48V255A14.51,14.51,0,0,0,230.05,240.54Z"/><path class="cls-1" d="M91.09,191.32v-51.8a8.29,8.29,0,0,1,8.37-8.37H151.4a8.13,8.13,0,0,1,8.22,8.22V142h17.9l2.64-.29v-2.64a28.72,28.72,0,0,0-28.76-28.61H99.46a29,29,0,0,0-29,28.9v51.95a28.94,28.94,0,0,0,28.9,28.9h50.18V199.69H99.31A8.31,8.31,0,0,1,91.09,191.32Z"/><polygon class="cls-1" points="122.8 176.35 159.63 176.35 159.63 220.22 180.31 220.22 180.31 155.66 122.8 155.66 122.8 176.35"/><rect class="cls-1" x="189.87" y="110.47" width="110.04" height="20.68"/><polygon class="cls-1" points="210.55 176.35 284.36 176.35 284.36 155.66 189.87 155.66 189.87 220.22 299.76 220.22 299.76 199.54 210.55 199.54 210.55 176.35"/><polygon class="cls-1" points="398.68 187.02 328.68 110.47 309.47 110.47 309.47 131.15 319.75 131.15 400.4 219.36 401.18 220.22 419.36 220.22 419.36 110.47 398.68 110.47 398.68 187.02"/><rect class="cls-1" x="309.47" y="155.66" width="20.68" height="64.56"/><polygon class="cls-1" points="486.53 176.35 560.34 176.35 560.34 155.66 465.85 155.66 465.85 220.22 575.74 220.22 575.74 199.54 486.53 199.54 486.53 176.35"/><rect class="cls-1" x="465.85" y="110.47" width="110.04" height="20.68"/><path class="cls-1" d="M465.86,40.87a34.12,34.12,0,0,0-49.25,1A34.49,34.49,0,0,0,440,99.77c.63,0,1.27,0,1.9,0a34.36,34.36,0,0,0,22.67-8.48l-4.33-5a27.79,27.79,0,0,1-19.89,6.85A28.2,28.2,0,0,1,414,67.09a27.72,27.72,0,0,1,47.25-21.56,28.94,28.94,0,0,1,8.54,20.53c0,3-.14,6.19-1.43,8.35a4.14,4.14,0,0,1-3.18,2.19,4.82,4.82,0,0,1-3.82-1.2,5.44,5.44,0,0,1-1.83-4.09V48.5H453v3.64a17.26,17.26,0,1,0,1.48,25A11.93,11.93,0,0,0,457,80.32a11.43,11.43,0,0,0,9,2.8,10.62,10.62,0,0,0,8-5.32c2.17-3.57,2.36-7.74,2.38-11.72A35.5,35.5,0,0,0,465.86,40.87ZM441.87,76a10.68,10.68,0,1,1,10.67-10.69A10.72,10.72,0,0,1,441.87,76Z"/><path class="cls-1" d="M616.83,331.35l-2.89,1.48V0H31.52V335.89h0l-8.87-4.59L0,319.67V600H7.06v0H634.77v0h4.71V319.67ZM48.12,16.6H597.34V341.35L582,349.26,389.37,448.42H250.1L57.54,349.26l-9.42-4.83ZM15.66,345.33l15.86,8.19,16.6,8.55,2.24,1.15L232,456.7,15.66,583.43Zm29.4,239L251.75,463.27h136L594.42,584.32Zm578.76-.89L407.53,456.7l181.59-93.48,8.22-4.24,16.6-8.54,9.88-5.11Z"/><polygon class="cls-2" points="623.82 345.33 623.82 583.43 407.52 456.7 589.12 363.22 597.34 358.98 613.94 350.44 623.82 345.33"/><polygon class="cls-3" points="594.42 584.32 45.06 584.32 251.75 463.27 387.73 463.27 594.42 584.32"/><polygon class="cls-2" points="232 456.7 15.65 583.43 15.65 345.33 31.52 353.52 48.12 362.07 50.35 363.22 232 456.7"/></svg>